<?xml version="1.0" encoding="UTF-8"?>
<svg id="Layer_2" data-name="Layer 2" xmlns="http://www.w3.org/2000/svg" viewBox="0 0 1172.95 710.65">
  <path  d="M1166.95,6c-17.21,2.22-31.79,13.44-44.71,25.03-90.46,81.18-142.5,197.79-230.61,281.51-104.89,99.66-259.41,144.25-401.27,115.81-41.84-8.39-83.97-23.65-114.01-53.97-23.79-24.01-38.24-55.72-48.78-87.84-14.11-43.01-21.51-92.1-.21-132.05,23.28-43.66,77.32-65.09,126.46-59.35,14.97,1.75,30.1,5.86,42.03,15.06,9.87,7.62,16.98,18.28,22.7,29.37,27.39,53.09,24.53,120.55-7.26,171.12-31.67,50.4-87.31,81.15-144.04,99.17-56.73,18.02-116.3,25.37-173.7,41.14-57.4,15.76-114.67,41.59-152.07,87.9-37.41,46.3-49.44,116.84-15.51,165.75"/>
  
</svg>