<?xml version="1.0" encoding="UTF-8"?>
<svg id="Layer_2" data-name="Layer 2" xmlns="http://www.w3.org/2000/svg" viewBox="0 0 1443.18 1057.69">
  <defs>
    <style>
      .cls-1 {
        fill: none;
        stroke: #363636;
        stroke-dasharray: 15 30;
        stroke-linecap: round;
        stroke-miterlimit: 10;
        stroke-width: 12px;
      }
    </style>
  </defs>
  <g id="Layer_1-2" data-name="Layer 1">
    <path class="cls-1" d="M360.72,6C221.19,60.08,103.12,167.55,36.18,301.39,15.1,343.54-1.33,391.37,9.35,437.28c9.49,40.78,39.9,74.67,76.5,95.01,36.6,20.34,78.91,28.35,120.73,30.43,111.31,5.54,219.02-15.69,306.67-84.53,21.39-16.8,26.73-14.82,37-40,10.27-25.18,16.83-52.38-3-71-19.32-18.14-59.58-25.31-84-15-24.42,10.31-22.84-4.94-40.45,14.87-31.64,35.57-36.81,76.53-15.55,119.13,16.69,33.45,38,51,70.99,54.12,107.56,10.17,197.7-78.47,294-127.44,165.96-84.4,371.81-85.44,538.61-2.73,41.19,20.43,81.58,47.21,104.01,87.34,20.02,35.81,23.61,78.5,21.97,119.5-5.23,131.3-110.38,341.7-203.2,434.71"/>
  </g>
</svg>