<?xml version="1.0" encoding="UTF-8"?>
<svg id="Layer_2" data-name="Layer 2" xmlns="http://www.w3.org/2000/svg" viewBox="0 0 1353.82 1152.68">
  <defs>
    <style>
      .cls-1 {
        fill: none;
        stroke: #363636;
        stroke-dasharray: 15 30;
        stroke-linecap: round;
        stroke-miterlimit: 10;
        stroke-width: 12px;
      }
    </style>
  </defs>
  <g id="Layer_1-2" data-name="Layer 1">
    <path class="cls-1" d="M1341.46,6c-110,249.33-290.78,256.92-378.67,284.87-90.71,28.85-185.93-16.64-277.98-40.88-120.66-31.77-251.87-26.12-367.07,21.78-115.21,47.91-213.08,138.88-263.7,252.92-29.88,67.32-43.22,141.06-47.05,214.61-3.49,67.04,1.26,136.52,30.78,196.81,28.13,57.44,77.1,102.67,131.74,135.93,171.11,104.14,396.14,93.16,575.99,4.95,62.95-30.87,122.03-70.8,169.82-122.09,106.49-114.28,151.28-277.65,265.58-384.11,45.04-41.95,110.93-74.35,166.93-48.8"/>
  </g>
</svg>