<?xml version="1.0" encoding="UTF-8"?>
<svg id="Layer_2" data-name="Layer 2" xmlns="http://www.w3.org/2000/svg" viewBox="0 0 91.05 153.93">
  <defs>
    <style>
      .cls-1 {
        fill: #bb95f8;
        stroke: #363636;
        stroke-linecap: round;
        stroke-miterlimit: 10;
        stroke-width: 10px;
      }
    </style>
  </defs>
  <g id="Layer_1-2" data-name="Layer 1">
    <path class="cls-1" d="M47.79,5.3c1.9,1.09,5.89,21.38,7.17,25.33,4.62,14.22,10.5,23.57,22.1,32.9,3.03,2.43,9.36,4.08,8.97,9.04-.22,2.77-10.35,10.09-13.03,13.07-10.84,12.1-15.2,29.67-18.77,45.23-1.04,4.51-.37,18.68-7.6,18.03-7-.63-6.03-16.36-7.1-21.84-3.31-16.86-11.02-32.64-24.09-43.91-2.44-2.11-10.39-6-10.44-8.5-.1-4.51,4.17-4.15,6.32-5.68,18.28-13.01,27.37-39.08,29.16-60.8,1.03-1.89,5.4-3.95,7.3-2.86Z"/>
  </g>
</svg>