<?xml version="1.0" encoding="UTF-8"?>
<svg id="Layer_2" data-name="Layer 2" xmlns="http://www.w3.org/2000/svg" viewBox="0 0 43.8 70.02">
  <defs>
    <style>
      .cls-1 {
        fill: #bb95f8;
        stroke: #363636;
        stroke-linecap: round;
        stroke-miterlimit: 10;
        stroke-width: 10px;
      }
    </style>
  </defs>
  <g id="Layer_1-2" data-name="Layer 1">
    <path class="cls-1" d="M22.84,5.13c.79.45,2.46,8.91,2.99,10.56,1.92,5.93,4.38,9.83,9.22,13.72,1.26,1.01,3.9,1.7,3.74,3.77-.09,1.16-4.31,4.21-5.43,5.45-4.52,5.05-6.34,12.37-7.83,18.86-.43,1.88-.16,7.79-3.17,7.52-2.92-.26-2.51-6.82-2.96-9.11-1.38-7.03-4.6-13.61-10.04-18.31-1.02-.88-4.33-2.5-4.36-3.54-.04-1.88,1.74-1.73,2.64-2.37,7.62-5.42,11.41-16.3,12.16-25.36.43-.79,2.25-1.65,3.05-1.19Z"/>
  </g>
</svg>