<?xml version="1.0" encoding="UTF-8"?>
<svg id="Layer_2" data-name="Layer 2" xmlns="http://www.w3.org/2000/svg" viewBox="0 0 74.95 77.2">
  <defs>
    <style>
      .cls-1 {
        fill: #bb95f8;
        stroke: #363636;
        stroke-linecap: round;
        stroke-miterlimit: 10;
        stroke-width: 10px;
      }
    </style>
  </defs>
  <g id="Layer_1-2" data-name="Layer 1">
    <path class="cls-1" d="M69.85,9.22c.92,1.88-4.95,13.56-5.73,16.21-2.78,9.54-2.52,17.93,1.96,30.58,1.17,3.3,5.11,8.73,2.67,10.56-1.37,1.02-11.99-3.39-15.26-4.1-13.23-2.89-24.07,1.39-33.46,5.4-2.72,1.16-8.39,7.73-13.42,2.07-4.88-5.49,2.68-11.51,4.27-14.66,4.89-9.7,6.07-22.21,1.36-36.78-.88-2.72-5.04-10.31-3.99-11.43,1.89-2.01,4.87,1.33,7.12,2.28,19.1,8.04,37.11,3.64,47.87-4.34,1.58-.04,5.69,2.33,6.61,4.22Z"/>
  </g>
</svg>